<svg width="100" height="100" viewBox="0 0 100 100" xmlns="http://www.w3.org/2000/svg">
  <defs>
    <linearGradient id="ib3Grad" x1="20%" y1="0%" x2="80%" y2="100%">
      <stop offset="0%" stop-color="#E0F0F8"/>
      <stop offset="55%" stop-color="#9BCDE2"/>
      <stop offset="100%" stop-color="#5E9DBE"/>
    </linearGradient>
    <linearGradient id="ib3Shine" x1="0%" y1="0%" x2="100%" y2="100%">
      <stop offset="0%" stop-color="rgba(255,255,255,0.8)"/>
      <stop offset="100%" stop-color="rgba(255,255,255,0)"/>
    </linearGradient>
  </defs>
  <path d="M8 14 L92 14 L96 88 L4 88 Z" fill="url(#ib3Grad)"/>
  <polygon points="8,14 92,14 88,22 12,22" fill="rgba(255,255,255,0.5)"/>
  <polygon points="14,22 34,22 28,82 14,82" fill="url(#ib3Shine)" opacity="0.6"/>
  <polygon points="4,88 96,88 88,92 12,92" fill="rgba(0,0,0,0.22)"/>
  <polygon points="92,14 96,88 88,86 88,22" fill="rgba(0,0,0,0.16)"/>
  <polygon points="58,34 60,38 64,40 60,42 58,46 56,42 52,40 56,38" fill="rgba(255,255,255,0.85)" opacity="0.55"/>
  <circle cx="74" cy="68" r="2" fill="rgba(255,255,255,0.6)"/>
  <circle cx="40" cy="70" r="1.3" fill="rgba(255,255,255,0.5)"/>
</svg>
