<svg width="100" height="100" viewBox="0 0 100 100" xmlns="http://www.w3.org/2000/svg">
  <defs>
    <linearGradient id="icGrad" x1="20%" y1="0%" x2="80%" y2="100%">
      <stop offset="0%" stop-color="#E6F4FB"/>
      <stop offset="55%" stop-color="#A8CFE2"/>
      <stop offset="100%" stop-color="#6BA6C4"/>
    </linearGradient>
  </defs>
  <path d="M8 14 L92 14 L96 88 L4 88 Z" fill="url(#icGrad)"/>
  <polygon points="8,14 92,14 88,22 12,22" fill="rgba(255,255,255,0.45)"/>
  <polygon points="4,88 96,88 88,92 12,92" fill="rgba(0,0,0,0.2)"/>
  <g stroke="#5A8AAF" stroke-width="1.6" stroke-linecap="round" fill="none">
    <path d="M22 30 L40 50 L34 64 L52 78"/>
    <path d="M40 50 L62 44"/>
    <path d="M52 78 L70 62"/>
    <path d="M34 64 L18 70"/>
    <path d="M62 44 L78 30"/>
    <path d="M70 62 L84 76"/>
  </g>
  <g fill="#5A8AAF" opacity="0.7">
    <polygon points="40,50 38,48 42,48"/>
    <polygon points="62,44 60,42 64,42"/>
    <polygon points="34,64 32,62 36,62"/>
  </g>
</svg>
