<svg width="100" height="100" viewBox="0 0 100 100" xmlns="http://www.w3.org/2000/svg">
  <defs>
    <linearGradient id="ib1Grad" x1="20%" y1="0%" x2="80%" y2="100%">
      <stop offset="0%" stop-color="#FFFFFF"/>
      <stop offset="55%" stop-color="#BEE0F2"/>
      <stop offset="100%" stop-color="#7FBEDD"/>
    </linearGradient>
    <linearGradient id="ib1Shine" x1="0%" y1="0%" x2="100%" y2="100%">
      <stop offset="0%" stop-color="rgba(255,255,255,0.85)"/>
      <stop offset="100%" stop-color="rgba(255,255,255,0)"/>
    </linearGradient>
  </defs>
  <path d="M8 14 L92 14 L96 88 L4 88 Z" fill="url(#ib1Grad)"/>
  <polygon points="8,14 92,14 88,22 12,22" fill="rgba(255,255,255,0.55)"/>
  <polygon points="14,22 38,22 32,82 14,82" fill="url(#ib1Shine)" opacity="0.75"/>
  <polygon points="4,88 96,88 88,92 12,92" fill="rgba(0,0,0,0.18)"/>
  <polygon points="92,14 96,88 88,86 88,22" fill="rgba(0,0,0,0.12)"/>
  <polygon points="70,28 73,34 79,36 73,38 70,44 67,38 61,36 67,34" fill="rgba(255,255,255,0.85)" opacity="0.6"/>
</svg>
