<svg width="100" height="100" viewBox="0 0 100 100" xmlns="http://www.w3.org/2000/svg">
  <defs>
    <linearGradient id="ib2Grad" x1="20%" y1="0%" x2="80%" y2="100%">
      <stop offset="0%" stop-color="#F0F8FC"/>
      <stop offset="55%" stop-color="#B0D6EC"/>
      <stop offset="100%" stop-color="#6CABCA"/>
    </linearGradient>
    <linearGradient id="ib2Shine" x1="0%" y1="0%" x2="100%" y2="100%">
      <stop offset="0%" stop-color="rgba(255,255,255,0.8)"/>
      <stop offset="100%" stop-color="rgba(255,255,255,0)"/>
    </linearGradient>
  </defs>
  <path d="M8 14 L92 14 L96 88 L4 88 Z" fill="url(#ib2Grad)"/>
  <polygon points="8,14 92,14 88,22 12,22" fill="rgba(255,255,255,0.5)"/>
  <polygon points="14,22 36,22 30,82 14,82" fill="url(#ib2Shine)" opacity="0.7"/>
  <polygon points="4,88 96,88 88,92 12,92" fill="rgba(0,0,0,0.2)"/>
  <polygon points="92,14 96,88 88,86 88,22" fill="rgba(0,0,0,0.14)"/>
  <polygon points="30,40 32,44 36,46 32,48 30,52 28,48 24,46 28,44" fill="rgba(255,255,255,0.85)" opacity="0.55"/>
  <circle cx="68" cy="62" r="1.6" fill="rgba(255,255,255,0.6)"/>
</svg>
