<svg width="48" height="48" viewBox="0 0 48 48" xmlns="http://www.w3.org/2000/svg">
  <defs>
    <linearGradient id="freezeG" x1="0%" y1="0%" x2="0%" y2="100%">
      <stop offset="0%" stop-color="#E6F6FF"/>
      <stop offset="100%" stop-color="#5BB5E8"/>
    </linearGradient>
  </defs>
  <g stroke="url(#freezeG)" stroke-width="3.5" stroke-linecap="round" fill="none">
    <path d="M24 4 L24 44"/>
    <path d="M6 24 L42 24"/>
    <path d="M10 10 L38 38"/>
    <path d="M38 10 L10 38"/>
    <path d="M24 4 L20 10 M24 4 L28 10"/>
    <path d="M24 44 L20 38 M24 44 L28 38"/>
    <path d="M6 24 L12 20 M6 24 L12 28"/>
    <path d="M42 24 L36 20 M42 24 L36 28"/>
  </g>
  <circle cx="24" cy="24" r="4" fill="url(#freezeG)"/>
  <circle cx="22" cy="22" r="1.4" fill="rgba(255,255,255,0.85)"/>
</svg>
