<svg width="200" height="200" viewBox="0 0 200 200" xmlns="http://www.w3.org/2000/svg">
  <defs>
    <radialGradient id="ppBody" cx="50%" cy="40%" r="60%">
      <stop offset="0%" stop-color="#3D526F"/>
      <stop offset="55%" stop-color="#0E1A2D"/>
      <stop offset="100%" stop-color="#05080F"/>
    </radialGradient>
    <linearGradient id="ppBelly" x1="0%" y1="0%" x2="0%" y2="100%">
      <stop offset="0%" stop-color="#FFFFFF"/>
      <stop offset="100%" stop-color="#D7E4EE"/>
    </linearGradient>
    <linearGradient id="ppBeak" x1="0%" y1="0%" x2="0%" y2="100%">
      <stop offset="0%" stop-color="#FFD27A"/>
      <stop offset="100%" stop-color="#E08A2F"/>
    </linearGradient>
    <linearGradient id="ppFoot" x1="0%" y1="0%" x2="0%" y2="100%">
      <stop offset="0%" stop-color="#FFAE5E"/>
      <stop offset="100%" stop-color="#E07823"/>
    </linearGradient>
    <linearGradient id="ppHat" x1="0%" y1="0%" x2="0%" y2="100%">
      <stop offset="0%" stop-color="#1A1A2E"/>
      <stop offset="100%" stop-color="#000000"/>
    </linearGradient>
  </defs>
  <ellipse cx="100" cy="184" rx="48" ry="6" fill="rgba(0,0,0,0.25)"/>
  <path d="M70 168 Q60 178 70 184 Q88 188 92 178 Z" fill="url(#ppFoot)"/>
  <path d="M130 168 Q140 178 130 184 Q112 188 108 178 Z" fill="url(#ppFoot)"/>
  <path d="M100 30 C56 30 38 70 38 110 C38 150 60 180 100 180 C140 180 162 150 162 110 C162 70 144 30 100 30 Z" fill="url(#ppBody)"/>
  <path d="M100 62 C74 62 64 92 64 120 C64 150 80 172 100 172 C120 172 136 150 136 120 C136 92 126 62 100 62 Z" fill="url(#ppBelly)"/>
  <path d="M42 96 Q22 116 32 152 Q48 156 56 138 Q58 116 56 96 Z" fill="url(#ppBody)"/>
  <path d="M158 96 Q178 116 168 152 Q152 156 144 138 Q142 116 144 96 Z" fill="url(#ppBody)"/>
  <ellipse cx="118" cy="86" rx="9" ry="11" fill="#FFFFFF"/>
  <circle cx="116" cy="88" r="4.5" fill="#0B0F18"/>
  <rect x="70" y="78" width="24" height="16" fill="#000000"/>
  <line x1="94" y1="86" x2="116" y2="80" stroke="#000000" stroke-width="2.4"/>
  <line x1="70" y1="86" x2="38" y2="76" stroke="#000000" stroke-width="2.4"/>
  <ellipse cx="74" cy="106" rx="6" ry="3.5" fill="#F7B7BC" opacity="0.7"/>
  <ellipse cx="126" cy="106" rx="6" ry="3.5" fill="#F7B7BC" opacity="0.7"/>
  <path d="M100 96 L92 110 L100 116 L108 110 Z" fill="url(#ppBeak)" stroke="#E08A2F" stroke-width="0.8"/>
  <path d="M90 124 Q100 132 110 124" stroke="#222" stroke-width="2" fill="none"/>
  <path d="M40 56 Q100 22 160 56 L150 64 Q100 38 50 64 Z" fill="url(#ppHat)" stroke="#FFFFFF" stroke-width="1.4"/>
  <path d="M70 54 Q100 30 130 54 L130 64 Q100 42 70 64 Z" fill="url(#ppHat)"/>
  <g transform="translate(100 50)">
    <circle r="9" fill="#FFFFFF"/>
    <ellipse cy="-3" rx="6" ry="3" fill="#1A1A2E"/>
    <ellipse cx="-2" cy="1" rx="1.8" ry="1.4" fill="#1A1A2E"/>
    <ellipse cx="2" cy="1" rx="1.8" ry="1.4" fill="#1A1A2E"/>
    <line x1="-5" y1="-7" x2="5" y2="7" stroke="#1A1A2E" stroke-width="1.6"/>
    <line x1="5" y1="-7" x2="-5" y2="7" stroke="#1A1A2E" stroke-width="1.6"/>
  </g>
</svg>
