<svg width="200" height="200" viewBox="0 0 200 200" xmlns="http://www.w3.org/2000/svg">
  <defs>
    <radialGradient id="pnBody" cx="50%" cy="40%" r="60%">
      <stop offset="0%" stop-color="#3D526F"/>
      <stop offset="55%" stop-color="#0E1A2D"/>
      <stop offset="100%" stop-color="#05080F"/>
    </radialGradient>
    <linearGradient id="pnBelly" x1="0%" y1="0%" x2="0%" y2="100%">
      <stop offset="0%" stop-color="#FFFFFF"/>
      <stop offset="100%" stop-color="#D7E4EE"/>
    </linearGradient>
    <linearGradient id="pnBeak" x1="0%" y1="0%" x2="0%" y2="100%">
      <stop offset="0%" stop-color="#FFD27A"/>
      <stop offset="100%" stop-color="#E08A2F"/>
    </linearGradient>
    <linearGradient id="pnFoot" x1="0%" y1="0%" x2="0%" y2="100%">
      <stop offset="0%" stop-color="#FFAE5E"/>
      <stop offset="100%" stop-color="#E07823"/>
    </linearGradient>
    <linearGradient id="pnBand" x1="0%" y1="0%" x2="100%" y2="0%">
      <stop offset="0%" stop-color="#A02A2A"/>
      <stop offset="100%" stop-color="#FF4D4D"/>
    </linearGradient>
  </defs>
  <ellipse cx="100" cy="184" rx="48" ry="6" fill="rgba(0,0,0,0.25)"/>
  <path d="M70 168 Q60 178 70 184 Q88 188 92 178 Z" fill="url(#pnFoot)"/>
  <path d="M130 168 Q140 178 130 184 Q112 188 108 178 Z" fill="url(#pnFoot)"/>
  <path d="M100 30 C56 30 38 70 38 110 C38 150 60 180 100 180 C140 180 162 150 162 110 C162 70 144 30 100 30 Z" fill="url(#pnBody)"/>
  <path d="M100 62 C74 62 64 92 64 120 C64 150 80 172 100 172 C120 172 136 150 136 120 C136 92 126 62 100 62 Z" fill="url(#pnBelly)"/>
  <path d="M42 96 Q22 116 32 152 Q48 156 56 138 Q58 116 56 96 Z" fill="url(#pnBody)"/>
  <path d="M158 96 Q178 116 168 152 Q152 156 144 138 Q142 116 144 96 Z" fill="url(#pnBody)"/>
  <rect x="42" y="100" width="116" height="22" fill="#0B0F18"/>
  <ellipse cx="82" cy="111" rx="10" ry="9" fill="#FFFFFF"/>
  <ellipse cx="118" cy="111" rx="10" ry="9" fill="#FFFFFF"/>
  <circle cx="84" cy="111" r="4.5" fill="#0B0F18"/>
  <circle cx="116" cy="111" r="4.5" fill="#0B0F18"/>
  <rect x="42" y="70" width="116" height="18" fill="url(#pnBand)"/>
  <path d="M158 70 L184 78 L172 96 L158 88 Z" fill="url(#pnBand)"/>
  <path d="M158 88 L168 92 L160 96 Z" fill="#5A0F0F"/>
  <text x="100" y="84" font-size="14" font-family="Impact, sans-serif" text-anchor="middle" fill="#FFFFFF" font-weight="bold">★</text>
  <path d="M100 134 L92 138 L100 142 L108 138 Z" fill="url(#pnBeak)"/>
</svg>
