<svg width="60" height="60" viewBox="0 0 60 60" xmlns="http://www.w3.org/2000/svg">
  <defs>
    <linearGradient id="frBg" x1="0%" y1="0%" x2="0%" y2="100%">
      <stop offset="0%" stop-color="#B0E0FF"/>
      <stop offset="100%" stop-color="#3A7CB8"/>
    </linearGradient>
  </defs>
  <circle cx="30" cy="30" r="28" fill="url(#frBg)" stroke="#E0F4FF" stroke-width="2"/>
  <g stroke="#FFFFFF" stroke-width="3" stroke-linecap="round" fill="none">
    <path d="M30 10 L30 50"/>
    <path d="M12 30 L48 30"/>
    <path d="M17 17 L43 43"/>
    <path d="M43 17 L17 43"/>
    <path d="M30 10 L26 16 M30 10 L34 16"/>
    <path d="M30 50 L26 44 M30 50 L34 44"/>
    <path d="M12 30 L18 26 M12 30 L18 34"/>
    <path d="M48 30 L42 26 M48 30 L42 34"/>
  </g>
  <circle cx="30" cy="30" r="4" fill="#FFFFFF"/>
</svg>
